<svg version="1.1" viewBox="0.0 0.0 926.1811023622047 196.8503937007874" fill="none" stroke="none" stroke-linecap="square" stroke-miterlimit="10" xmlns:xlink="http://www.w3.org/1999/xlink" xmlns="http://www.w3.org/2000/svg"><clipPath id="p.0"><path d="m0 0l926.1811 0l0 196.85039l-926.1811 0l0 -196.85039z" clip-rule="nonzero"/></clipPath><g clip-path="url(#p.0)"><path fill="#000000" fill-opacity="0.0" d="m0 0l926.1811 0l0 196.85039l-926.1811 0z" fill-rule="evenodd"/><path fill="#6d9eeb" d="m245.5446 80.236015c1.644043 0 2.9443207 0.530571 3.9008484 1.5917206c0.97146606 1.0462036 1.4571991 2.4436264 1.4571991 4.192276c0 3.3926773 -1.5618286 6.374359 -4.685486 8.945023c-3.1087189 2.5706635 -7.375717 4.498665 -12.801025 5.784004l0 -0.2690277c0 -5.6046524 1.1732483 -10.379814 3.5197296 -14.325485c2.3464813 -3.9456787 5.2160645 -5.9185104 8.608734 -5.9185104zm-146.97108 -49.85898c7.24868 0 13.167191 2.8247433 17.755539 8.474234c4.6032867 5.6494865 6.90493 13.936897 6.90493 24.862228c0 9.909027 -1.4721527 18.794266 -4.4164658 26.655724c-2.9293747 7.846512 -7.12912 13.974266 -12.599258 18.383255c-5.4701385 4.408989 -11.784714 6.6134872 -18.943718 6.6134872c-7.2486725 0 -13.174652 -2.8247452 -17.777954 -8.474236c-4.5883484 -5.6494904 -6.882511 -13.936897 -6.882511 -24.862228c0 -10.013649 1.5170021 -18.943722 4.550976 -26.790234c3.0339813 -7.846512 7.2561417 -13.951843 12.666512 -18.315998c5.4253006 -4.364155 11.67263 -6.546232 18.741951 -6.546232zm422.31033 0c7.2487183 0 13.167236 2.8247433 17.755554 8.474234c4.6032715 5.6494865 6.904907 13.936897 6.904907 24.862228c0 9.909027 -1.4721069 18.794266 -4.416443 26.655724c-2.9293823 7.846512 -7.1290894 13.974266 -12.599243 18.383255c-5.470154 4.408989 -11.784729 6.6134872 -18.943726 6.6134872c-7.2486877 0 -13.174652 -2.8247452 -17.777954 -8.474236c-4.5883484 -5.6494904 -6.8825073 -13.936897 -6.8825073 -24.862228c0 -10.013649 1.5169983 -18.943722 4.5509644 -26.790234c3.0339966 -7.846512 7.256134 -13.951843 12.666504 -18.315998c5.4253235 -4.364155 11.672668 -6.546232 18.741943 -6.546232zm-118.58807 -0.9640007c7.622345 0 13.406342 1.6515045 17.35202 4.9545116c3.9456787 3.303009 5.918518 7.846512 5.918518 13.630512c0 4.782631 -1.2181091 9.057114 -3.6542358 12.823441c-2.4361572 3.766327 -5.694336 6.703163 -9.774536 8.810509c-4.0801697 2.1073532 -8.601257 3.303009 -13.563232 3.586975l4.125 -22.86697c0.08969116 -0.5529976 0.13452148 -1.3376465 0.13452148 -2.3539543c0 -4.6780167 -2.615509 -7.017025 -7.8464966 -7.017025c-6.5163574 0 -10.372345 2.9816742 -11.568024 8.945023c-1.2853088 6.5312843 -2.6603088 14.295597 -4.125 23.292927l-3.4524841 0c-1.8383179 0 -3.4674072 0.6426697 -4.8872375 1.9280014c-1.4198608 1.2853317 -2.1297607 3.0265121 -2.1297607 5.2235336c0 1.8383255 0.5679321 3.4973068 1.7037964 4.9769363c1.1508179 1.4646759 3.2880554 2.1970215 6.4117126 2.1970215l-3.721466 20.64753c-0.44839478 2.6603394 -1.068634 4.5883408 -1.8607483 5.784004c-0.77719116 1.1956635 -1.7636108 1.7934875 -2.959259 1.7934875c-1.5543518 0 -3.2058716 -1.0536728 -4.954529 -3.161026c-1.7486267 -2.1073456 -3.2207947 -5.2758484 -4.416443 -9.505486c-1.1807251 -4.229637 -1.7710876 -9.281303 -1.7710876 -15.154976c0 -12.584305 1.8757019 -23.255562 5.627075 -32.013767c3.766327 -8.773144 9.027222 -15.386631 15.782715 -19.840462c6.7554626 -4.453829 14.631866 -6.680746 23.62918 -6.680746zm-218.45305 50.95748c1.8233795 0 3.2880707 0.7173996 4.394043 2.1521912c1.1059875 1.419838 1.6589813 3.5047684 1.6589813 6.2547913c0 4.678009 -0.8294983 9.154251 -2.4884796 13.428741c-1.6440277 4.274475 -3.8709412 7.86145 -6.6807404 10.760925c-2.7948456 2.884529 -5.8437805 4.692955 -9.14679 5.425308c0.0896759 -2.3016434 0.13452148 -5.5598145 0.13452148 -9.774513c0 -7.81662 0.044830322 -13.742607 0.13450623 -17.777954c4.678009 -6.9796524 8.675995 -10.46949 11.9939575 -10.46949zm-83.90167 -66.24697c-10.641373 0 -20.348625 2.8919992 -29.121765 8.676c-8.77314 5.7840004 -15.707954 14.004152 -20.804466 24.660463c-5.096489 10.641365 -7.644741 22.941711 -7.644741 36.901024c0 9.923965 1.9279976 18.443031 5.7839966 25.557205c3.8560028 7.114174 9.064583 12.5095825 15.625767 16.186234c6.5761185 3.676651 13.951836 5.514969 22.127167 5.514969c10.641365 0 20.348625 -2.8919983 29.121765 -8.675995c8.773148 -5.7839966 15.707977 -14.00415 20.804459 -24.660461c5.0964966 -10.656311 7.644745 -22.964119 7.644745 -36.92344c0 -9.909023 -1.9279938 -18.42062 -5.7839966 -25.53479c-3.8560028 -7.129116 -9.072067 -12.524527 -15.648186 -16.186232c-6.5611877 -3.676652 -13.929443 -5.5149775 -22.104744 -5.5149775zm54.69023 109.783905c-0.46331787 16.066666 -1.5244751 29.495407 -3.1834412 40.286224c-1.644043 10.7908325 -3.7065582 16.186234 -6.187546 16.186234c-0.9116821 0 -1.7112732 -0.7846527 -2.3987885 -2.3539581c-0.6875 -1.5543518 -1.03125 -3.8036957 -1.03125 -6.748001c0 -5.6943207 1.1508179 -12.718811 3.4524689 -21.073486c2.2866974 -8.35466 5.402878 -17.12033 9.3485565 -26.297012zm367.62012 -109.783905c-10.641357 0 -20.348633 2.8919992 -29.121765 8.676c-8.773132 5.7840004 -15.707977 14.004152 -20.804474 24.660463c-5.0964966 10.641365 -7.6447144 22.941711 -7.6447144 36.901024c0 6.18557 0.7489929 11.82534 2.2470703 16.919312l0 0c-0.29986572 0.24433899 -0.59091187 0.5305481 -0.87323 0.85863495c-4.0353394 4.7676926 -7.3831787 8.145424 -10.043518 10.133209c-2.6603394 1.9728394 -5.462677 2.959259 -8.406982 2.959259c-3.303009 0 -6.2174377 -1.2853394 -8.743256 -3.8560028c-2.5258179 -2.5706635 -5.074066 -6.6134872 -7.644745 -12.128464c-2.391327 -5.1413345 -4.7826233 -9.042168 -7.17395 -11.702507c-2.3763733 -2.6752853 -5.7690735 -4.6032867 -10.17804 -5.784004c6.979645 -1.8383255 12.898163 -4.640648 17.755524 -8.406975c4.8723145 -3.766327 8.52655 -8.108063 10.9627075 -13.0252075c2.4361267 -4.917145 3.6542053 -9.946384 3.6542053 -15.087719c0 -5.8736763 -1.449707 -11.149521 -4.349182 -15.827536c-2.8845215 -4.678013 -7.3159485 -8.347193 -13.2942505 -11.007534c-5.9633484 -2.6752853 -13.354004 -4.012929 -22.171997 -4.012929c-12.673981 0 -23.853394 2.9667273 -33.53824 8.900186c-9.684814 5.9185104 -17.217468 14.482416 -22.59793 25.691717c-5.3655396 11.194355 -8.048279 24.503536 -8.048279 39.927532c0 5.1944046 0.5076904 10.034607 1.5230713 14.520592l0 0c-3.7236328 4.3866653 -6.737915 7.6096954 -9.042786 9.669083c-2.5108948 2.2418594 -4.685486 3.362793 -6.523834 3.362793c-2.6752625 0 -4.012909 -1.8383255 -4.012909 -5.5149765c0 -2.5706635 0.8743286 -7.846512 2.6229858 -15.827538c2.0176697 -9.370972 3.0264893 -15.849953 3.0264893 -19.436928c0 -5.9633484 -2.981659 -8.945023 -8.945007 -8.945023c-3.0339966 0 -6.3668823 1.0611496 -9.998718 3.1834412c-3.6168518 2.1073532 -7.308441 5.642021 -11.074768 10.604004c-3.766327 4.9470367 -7.166504 11.366226 -10.20047 19.257576c0.3736267 -4.035347 0.8369446 -7.428032 1.3899536 -10.178047c0.5529785 -2.7649536 1.2853394 -5.9782867 2.1970215 -9.639999c1.375 -5.141327 2.0625 -8.451813 2.0625 -9.931442c0 -1.2853317 -0.3661499 -2.1521835 -1.0985107 -2.6005554c-0.7323303 -0.46331787 -2.0176697 -0.6949768 -3.8559875 -0.6949768c-3.3927002 0 -6.030609 0.6202469 -7.9137573 1.8607483c-1.8831787 1.2404938 -3.2357788 3.1909103 -4.05777 5.8512497c-3.1446533 9.916679 -4.838318 20.342468 -5.081024 31.277367l0 0c-3.0958252 3.0662842 -6.5703125 5.658226 -10.423492 7.7758408c-5.2758484 2.8845215 -9.983749 4.32679 -14.123718 4.32679c-6.4266663 0 -10.790817 -2.1073456 -13.092468 -6.3220444c10.835663 -2.6603394 18.525238 -6.262253 23.068756 -10.805763c4.558441 -4.5584564 6.837677 -10.00618 6.837677 -16.343163c0 -5.4103546 -1.6066895 -9.699783 -4.8200073 -12.8682785c-3.2133484 -3.1684952 -7.487808 -4.7527466 -12.823441 -4.7527466c-5.9633484 0 -11.313919 1.6066666 -16.051727 4.8199997c-4.7228546 3.2133331 -8.414444 7.555069 -11.074783 13.0252075c-2.6603394 5.4551926 -3.990509 11.351288 -3.990509 17.688278c0 2.0294876 0.13269043 3.9631805 0.3981018 5.801079l0 0c-2.032257 2.157486 -3.8184204 3.855606 -5.3585052 5.0943604c-2.7500153 2.197029 -5.6420135 3.2955399 -8.675995 3.2955399c-1.2853394 0 -2.8919983 -0.27650452 -4.8200073 -0.82949066c2.7500153 -3.766327 4.9022064 -7.9436646 6.456558 -12.531998c1.5693054 -4.5883408 2.3539581 -9.318665 2.3539581 -14.190979c0 -6.6956863 -1.6290894 -12.106041 -4.887253 -16.231064c-3.2581787 -4.1399765 -7.4579315 -6.2099533 -12.599258 -6.2099533c-3.2133331 0 -6.2473297 0.8070679 -9.101959 2.4212036c-2.839676 1.5991974 -5.7316895 4.229645 -8.675995 7.89135c-0.0896759 -1.0910416 -0.13450623 -2.787384 -0.13450623 -5.08902c-0.0896759 -2.3016434 -0.57540894 -3.8410568 -1.4572144 -4.6182327c-0.8668518 -0.77718353 -2.2642822 -1.1657715 -4.192276 -1.1657715c-3.303009 0 -6.060501 0.7846527 -8.272476 2.3539581c-2.1970215 1.5543518 -3.2506866 3.661705 -3.1610107 6.3220444c0.17933655 5.231003 0.26901245 14.549675 0.26901245 27.956001c-8.6236725 14.422638 -14.998047 27.627197 -19.123062 39.613663c-4.139969 11.986481 -6.209961 22.478394 -6.209961 31.475723c0 6.3370056 1.1956635 11.291519 3.5869904 14.863541c2.376358 3.5869904 6.045532 5.380478 11.007523 5.380478c8.1753235 0 14.370331 -5.9484253 18.585022 -17.84523c4.229645 -11.881851 6.9422913 -26.685608 8.137955 -44.411255c5.694336 -0.0896759 11.156998 -1.8383179 16.388 -5.245949c3.0339966 3.4973068 6.987137 5.245949 11.859436 5.245949c5.784012 0 10.947754 -1.5618134 15.491257 -4.685478c2.5928192 -1.7825699 5.0882874 -3.8498611 7.4864197 -6.2018814l0 0c0.78941345 1.0766754 1.6661682 2.090294 2.6302643 3.0408554c5.3206787 5.2310104 12.808502 7.846504 22.46344 7.846504c7.069336 0 13.697754 -1.7411652 19.885315 -5.223526c2.616394 -1.4752731 4.982788 -3.007721 7.0992126 -4.597336l0 0c0.31228638 1.669693 0.70028687 3.104988 1.1640625 4.305893c1.4347839 3.676651 3.8933716 5.514969 7.3757324 5.514969c2.8546143 0 4.9470215 -0.7547455 6.277191 -2.264267c1.3301697 -1.5244675 2.4959412 -4.4463654 3.4973145 -8.765678c1.3899536 -5.6046524 3.2058716 -10.925339 5.4477234 -15.962044c2.2568054 -5.0516663 4.4613037 -9.116913 6.613495 -12.1957245c2.1521606 -3.0788193 3.8261108 -4.6182327 5.021759 -4.6182327c1.0162964 0 1.5244751 0.7323456 1.5244751 2.1970215c0 2.2119675 -0.59783936 6.2099533 -1.7934875 11.9939575c-1.2853394 6.6060104 -1.928009 11.194344 -1.928009 13.765022c0 5.1413345 1.1881714 9.072067 3.5645447 11.792183c2.391327 2.7051773 5.9334717 4.057762 10.626434 4.057762c5.7839966 0 10.947754 -1.5618134 15.491241 -4.685478c4.097748 -2.8172073 7.9523315 -6.3455887 11.563812 -10.585129l0 0c2.2623596 3.9829025 5.0617676 7.257202 8.398224 9.822891c4.737793 3.631813 10.17804 5.4477158 16.32074 5.4477158c5.604645 0 9.781982 -1.4945679 12.532013 -4.4837112c2.7649536 -2.989151 4.6032715 -7.2785873 5.514984 -12.8682785c0.1942749 -1.0163193 0.6575928 -3.8186417 1.3899536 -8.406982c1.7486267 -10.192986 2.8023071 -16.253479 3.1610107 -18.181488c2.4809875 0.2690277 4.565918 1.0462036 6.2547913 2.3315353c1.7038269 1.2853394 3.4300537 3.4225845 5.178711 6.4117203c1.7486267 2.989151 4.1399536 7.599907 7.17395 13.832283c3.7513733 7.8166122 7.719452 13.331589 11.904266 16.54493c4.1848145 3.2133331 9.258881 4.819992 15.222229 4.819992c6.157654 0 11.485779 -1.4422607 15.984467 -4.326782c4.498657 -2.899475 8.952484 -7.017021 13.361481 -12.3526535c0.48590088 -0.5906143 0.9036865 -1.2393265 1.253418 -1.9461594l0 0c3.6234741 5.613449 8.225342 9.983658 13.8055725 13.110626c6.576111 3.676651 13.951843 5.514969 22.127167 5.514969c10.641327 0 20.348602 -2.8919983 29.121735 -8.675995c8.773132 -5.7839966 15.707947 -14.00415 20.804504 -24.660461c5.0964355 -10.656311 7.6447144 -22.964119 7.6447144 -36.92344c0 -9.909023 -1.9279785 -18.42062 -5.7839966 -25.53479c-3.856018 -7.129116 -9.0720825 -12.524527 -15.648193 -16.186232c-6.561157 -3.676652 -13.929443 -5.5149775 -22.104736 -5.5149775z" fill-rule="evenodd"/><path fill="#6d9eeb" d="m689.8216 14.123345c-0.3581543 0 -1.477417 0.22900105 -3.357788 0.6870012c-1.8803711 0.4396801 -4.2905884 0.65952015 -7.23053 0.65952015c-4.4920044 0.1099205 -9.670532 0.21984005 -15.535522 0.32976055c-5.86499 0.10991955 -11.364319 0.1648798 -16.498047 0.1648798c-1.8356323 0 -3.9025269 -0.08244038 -6.2008057 -0.24732018c-2.2832642 -0.1648798 -4.6188354 -0.30228043 -7.006592 -0.41219997c-2.3878174 -0.1099205 -4.5890503 -0.16488075 -6.60376 -0.16488075c-0.8208008 0 -1.4848633 0.25648117 -1.9923096 0.76944065c-0.50738525 0.4946413 -0.76104736 1.1358423 -0.76104736 1.9236021c0 0.6778393 0.20141602 1.3556786 0.6043701 2.0335217c0.41784668 0.6778431 1.1789551 1.1816406 2.2833252 1.5114021c3.2085571 0.8976822 5.387451 2.106804 6.53656 3.6273632c1.1491089 1.5205593 1.7236938 4.0853596 1.7236938 7.6944084l0 76.97155c0 3.4991302 -0.61932373 5.8715744 -1.8580322 7.117325c-1.2386475 1.2274399 -3.3727417 2.3999176 -6.4022217 3.5174408c-1.8356323 0.6778412 -2.753418 1.8594818 -2.753418 3.5449295c0 0.67783356 0.23132324 1.3007126 0.6939697 1.8686371c0.46258545 0.56791687 1.1043091 0.85188293 1.9251099 0.85188293c1.8356323 0 3.9398804 -0.09160614 6.312744 -0.27480316c2.3877563 -0.16487885 4.7755127 -0.3022766 7.16333 -0.41220093c2.3877563 -0.10991669 4.4994507 -0.16487885 6.335083 -0.16487885c4.1188965 0 8.678101 0.02748108 13.67749 0.08244324c4.9994507 0.05496216 9.812317 0.13739777 14.43866 0.24732208c4.6262817 0.10991669 8.498962 0.19235992 11.618042 0.24731445c3.1190186 0.073280334 4.909851 0.10992432 5.3724976 0.10992432c0.7312622 0 1.4177246 -0.1465683 2.0594482 -0.439682c0.64172363 -0.27480316 1.052124 -0.8060837 1.2312012 -1.5938416c0.64172363 -2.8212814 1.3058472 -5.5509644 1.9923096 -8.189049c0.701416 -2.656395 1.276001 -5.1662445 1.7236938 -7.5295258c0.46264648 -2.3632812 0.6939087 -4.5525208 0.6939087 -6.567726c0 -0.7877579 -0.09698486 -1.5480347 -0.2909546 -2.2808456c-0.17913818 -0.7327957 -0.5372925 -1.0991974 -1.0745239 -1.0991974c-0.55218506 0 -1.0372314 0.11908722 -1.4550781 0.35723877c-0.41784668 0.219841 -0.80584717 0.7786102 -1.1640015 1.6762848c-1.0148315 2.473198 -2.1863403 4.9464035 -3.5145264 7.4196014c-1.3282471 2.4732056 -2.7683716 4.497566 -4.3204346 6.0730896c-1.2833862 1.3556824 -2.8205566 2.344963 -4.611389 2.967842c-1.7908325 0.622879 -3.604065 0.93431854 -5.439636 0.93431854l-12.244873 0c-2.2833252 0 -3.9771118 -0.6503525 -5.081482 -1.9510803c-1.1043701 -1.3007278 -1.6565552 -3.5266037 -1.6565552 -6.677643l0 -31.904312c0 -1.2457657 0.25372314 -2.19841 0.7611084 -2.8579254c0.5074463 -0.6778412 1.2610474 -1.0167542 2.2609863 -1.0167542l12.938782 0c1.7460327 0 3.1414185 0.9617996 4.186035 2.8853989c1.0596313 1.9052887 1.9998169 4.65329 2.8206177 8.244011c0.6416626 2.711357 1.7460327 4.0670395 3.3130493 4.0670395c0.46258545 0 0.850647 -0.36640167 1.1640015 -1.0991974c0.3283081 -0.7327957 0.3955078 -1.9419174 0.20147705 -3.627365c-0.089538574 -1.7037659 -0.17907715 -3.343399 -0.26861572 -4.9189224c-0.089538574 -1.575531 -0.15667725 -3.1235657 -0.20147705 -4.644127c-0.04473877 -1.5205612 -0.06713867 -3.0044785 -0.06713867 -4.451767c0 -1.5755157 0.022399902 -3.123558 0.06713867 -4.6441193c0.044799805 -1.5205612 0.13433838 -3.0685997 0.26861572 -4.644127c0.13433838 -1.5755196 0.24627686 -3.1510391 0.33581543 -4.7265625c0.10443115 -1.2457619 -0.029846191 -2.2075615 -0.4029541 -2.8854027c-0.3731079 -0.677845 -0.7835083 -1.0167618 -1.2312012 -1.0167618c-1.1939087 0 -2.1564941 1.0167618 -2.8876953 3.0502815c-0.8357544 2.6930428 -1.7833862 5.111286 -2.8429565 7.2547264c-1.0446777 2.143444 -2.7609253 3.2151604 -5.1486816 3.2151604l-11.685181 0c-1.1043701 0 -1.977417 -0.31143188 -2.6191406 -0.93431854c-0.64172363 -0.622879 -0.96258545 -1.6671219 -0.96258545 -3.132721l0 -31.05243c0 -2.4732018 0.7312622 -4.3876457 2.1937866 -5.743326c1.477478 -1.3556786 3.3652954 -2.0335217 5.663513 -2.0335217l8.663208 0c2.5668335 0 4.626343 0.5954037 6.1783447 1.7862015c1.5670166 1.1724834 2.8504639 2.3816051 3.8503418 3.6273632c1.0147705 1.2274437 1.9102173 2.8854027 2.6862183 4.9738865c0.776062 2.088482 1.6714478 4.653282 2.6862793 7.6944046c0.3581543 1.0076065 0.8133545 1.740406 1.3654785 2.1984024c0.55218506 0.439682 1.0596313 0.659523 1.5222168 0.659523c0.4477539 0 0.8581543 -0.27480316 1.2312012 -0.82440186c0.3731079 -0.5679245 0.55963135 -1.4198036 0.55963135 -2.5556412c0 -3.0411263 -0.2984619 -6.558571 -0.89538574 -10.552332c-0.59698486 -3.993761 -1.0819702 -8.069962 -1.4550781 -12.228611c-0.089538574 -1.3556824 -0.52233887 -2.2808418 -1.2983398 -2.7754822c-0.776001 -0.5129595 -1.5371094 -0.76944065 -2.2833252 -0.76944065z" fill-rule="evenodd"/><path fill="#6d9eeb" d="m744.42163 22.724594c2.9400024 0 5.4396973 0.81524277 7.4991455 2.4457207c2.0744019 1.6304798 3.656311 4.14032 4.7457275 7.5295296c1.1043091 3.370884 1.6564941 7.7585297 1.6564941 13.16293c0 4.2685623 -0.52978516 8.015003 -1.5893555 11.23933c-1.0446777 3.206005 -2.6265259 5.706688 -4.7457275 7.5020447c-2.104187 1.7953644 -4.80542 2.6930466 -8.103516 2.6930466c-1.4625244 0 -2.6340332 -0.50379944 -3.5145264 -1.511406c-0.86553955 -1.0075989 -1.2983398 -2.6380806 -1.2983398 -4.8914413c0 -5.074646 0 -9.489773 0 -13.245373c0 -3.773922 0 -6.906643 0 -9.398167c0 -6.521925 0.4328003 -10.735527 1.2983398 -12.640812c0.88049316 -1.923603 2.231079 -2.8854027 4.051758 -2.8854027zm108.387634 -8.436368c-3.3876343 0 -6.1410522 0.14656067 -8.260193 0.4396801c-2.104248 0.2748003 -4.007019 0.5496006 -5.708313 0.8244009c-1.6864014 0.2748003 -3.6339111 0.41219997 -5.8425903 0.41219997c-1.8356323 0 -3.9025269 -0.08244038 -6.2008057 -0.24732018c-2.2833252 -0.1648798 -4.6188354 -0.30228043 -7.006653 -0.41219997c-2.3728027 -0.1099205 -4.5665894 -0.16488075 -6.581299 -0.16488075c-0.83569336 0 -1.5072632 0.25648117 -2.0147095 0.76944065c-0.49243164 0.4946413 -0.7387085 1.1358423 -0.7387085 1.9236021c0 0.6778393 0.20147705 1.3556786 0.60443115 2.0335217c0.41784668 0.6778431 1.1789551 1.1816406 2.2833252 1.5114021c3.2085571 0.8976822 5.379944 2.106804 6.51416 3.6273632c1.1491089 1.5205593 1.7236328 4.0853596 1.7236328 7.6944084l0 76.64179c0 3.4807968 -0.6416626 5.89904 -1.9251099 7.2547226c-1.2834473 1.35569 -3.6637573 2.4823685 -7.140991 3.380043c-1.7460327 0.56791687 -2.6190796 1.8045197 -2.6190796 3.7098007c0 0.7877579 0.276062 1.4106369 0.8282471 1.8686447c0.55218506 0.439682 1.1043701 0.659523 1.6565552 0.659523c2.0146484 0 4.283081 -0.08244324 6.805176 -0.24732208c2.5220947 -0.16487885 4.9919434 -0.3022766 7.409546 -0.41220093c2.4325562 -0.10991669 4.5666504 -0.16487885 6.4022827 -0.16487885c1.8355713 0 4.1935425 0.05496216 7.0737915 0.16487885c2.8952026 0.10992432 5.812744 0.219841 8.752686 0.3297577c2.9400024 0.10992432 5.3725586 0.16488647 7.2976685 0.16488647c0.7312622 0 1.276001 -0.219841 1.6341553 -0.659523c0.3731079 -0.45800018 0.55963135 -1.0808716 0.55963135 -1.8686447c0 -1.1175156 -0.23132324 -1.9327545 -0.6939697 -2.4457169c-0.46258545 -0.51296234 -1.1043091 -0.879364 -1.9251099 -1.099205c-3.9398804 -1.0075989 -6.715637 -2.1892395 -8.327393 -3.5449219c-1.5968628 -1.35569 -2.3952637 -3.7739258 -2.3952637 -7.25473l0.13433838 -78.01579c0 -3.0411243 0.64172363 -5.28533 1.9251099 -6.732607c1.2834473 -1.4655991 3.2086182 -2.1984005 5.7754517 -2.1984005c4.4920044 0 7.9542847 2.335802 10.386841 7.007406c2.4325562 4.6716022 3.6488647 12.347689 3.6488647 23.028261c0 8.335606 -0.8954468 15.123173 -2.6862793 20.362698c-1.7908325 5.2212067 -4.4248657 7.83181 -7.9020386 7.83181c-1.1939087 0 -2.1340942 -0.1374054 -2.8205566 -0.41220093c-0.68652344 -0.27480316 -1.5819092 -0.41220093 -2.6862793 -0.41220093c-0.46264648 0 -1.0147705 0.2290039 -1.6564941 0.68699646c-0.64172363 0.439682 -0.96258545 1.1083679 -0.96258545 2.0060425c0 1.35569 0.64172363 2.4823685 1.9251099 3.380043c1.2834473 0.8976822 3.1638184 1.3465271 5.6411743 1.3465271c7.611023 0 13.91626 -1.8228531 18.91571 -5.4685287c4.9993896 -3.664009 8.737793 -8.509651 11.215088 -14.536934c2.477295 -6.0272827 3.7160034 -12.58585 3.7160034 -19.675697c0 -10.2408905 -3.305603 -18.310862 -9.916748 -24.209902c-6.5962524 -5.917366 -15.535522 -8.876048 -26.81781 -8.876048zm-106.03717 0.49464035c-3.3876343 0 -6.1410522 0.14656067 -8.260193 0.4396801c-2.104248 0.2748003 -4.007019 0.5587616 -5.708313 0.8518801c-1.6863403 0.27480125 -3.6339111 0.41220093 -5.8425903 0.41220093c-2.3877563 0 -4.4994507 -0.1099205 -6.335083 -0.3297596c-1.8206787 -0.23816013 -3.7458496 -0.46716118 -5.7754517 -0.6870012c-2.0147095 -0.21984005 -4.529297 -0.32976055 -7.5438843 -0.32976055c-0.8357544 0 -1.5073242 0.25648117 -2.0147095 0.76944065c-0.49249268 0.4946413 -0.7387085 1.1358423 -0.7387085 1.9236021c0 0.6778393 0.20147705 1.3556786 0.60443115 2.0335217c0.41784668 0.6778431 1.1789551 1.1816406 2.2832642 1.5114021c2.1937866 0.5679226 3.8876343 1.2732449 5.081543 2.115961c1.1938477 0.84272385 2.0146484 1.9694042 2.4624023 3.380043c0.46258545 1.3923244 0.6939087 3.3342476 0.6939087 5.8257675l0 76.64179c0 3.4807968 -0.64172363 5.89904 -1.9251099 7.2547226c-1.2834473 1.35569 -3.6637573 2.4823685 -7.140991 3.380043c-1.7460327 0.56791687 -2.6190796 1.8045197 -2.6190796 3.7098007c0 0.7877579 0.276062 1.4106369 0.8282471 1.8686447c0.55218506 0.439682 1.1043701 0.659523 1.6565552 0.659523c2.0146484 0 4.283081 -0.08244324 6.805176 -0.24732208c2.5220947 -0.16487885 4.9919434 -0.3022766 7.409546 -0.41220093c2.4325562 -0.10991669 4.5666504 -0.16487885 6.4022827 -0.16487885c1.8355713 0 4.1935425 0.05496216 7.0737915 0.16487885c2.8951416 0.10992432 5.812744 0.219841 8.752686 0.3297577c2.9399414 0.10992432 5.3724976 0.16488647 7.2976685 0.16488647c0.7312622 0 1.27594 -0.219841 1.6341553 -0.659523c0.37304688 -0.45800018 0.55963135 -1.0808716 0.55963135 -1.8686447c0 -1.1175156 -0.23132324 -1.9327545 -0.6939697 -2.4457169c-0.46264648 -0.51296234 -1.1043701 -0.879364 -1.9251709 -1.099205c-3.9398193 -1.0075989 -6.715637 -2.1892395 -8.327332 -3.5449219c-1.5968628 -1.35569 -2.3952637 -3.7739258 -2.3952637 -7.25473l0 -32.756187c0 -1.0076065 0.11193848 -1.8228455 0.3357544 -2.4457245c0.23876953 -0.622879 0.58203125 -0.93431854 1.0297241 -0.93431854c0.46264648 0 0.99243164 0.09159851 1.5894165 0.27480316c0.5969238 0.16487885 1.1715088 0.46715546 1.7236328 0.90683746c1.2834473 0.8976822 2.380371 2.5831223 3.2907104 5.056328c1.7460327 4.616638 3.4846191 8.81192 5.2157593 12.585846c1.7460938 3.7739334 3.5369263 7.3188553 5.3725586 10.634773c1.8355713 3.315918 3.7159424 6.6135178 5.6411133 9.892807c1.8356323 3.0411224 3.8950806 5.8257675 6.178406 8.353928c2.2982178 2.5281677 5.163574 4.580002 8.596008 6.155525c3.4473267 1.575531 7.737915 2.3632812 12.871643 2.3632812c3.581665 0 6.7006836 -0.39387512 9.357117 -1.1816406c2.656372 -0.78775024 4.6934814 -1.996872 6.111206 -3.6273575c1.4326782 -1.6304855 2.1489868 -3.8014145 2.1489868 -6.5127716c0 -2.125122 -0.6939087 -3.187683 -2.0818481 -3.187683c-3.2085571 0 -6.5290527 -0.3389206 -9.961487 -1.0167618c-3.432434 -0.67783356 -6.7529907 -2.876236 -9.961548 -6.5951996c-2.6713257 -3.1510391 -5.335205 -6.6684875 -7.991638 -10.55233c-2.656372 -3.88385 -5.2904053 -8.134087 -7.9020386 -12.750732c-2.6116333 -4.616646 -5.2904053 -9.39817 -8.036377 -14.344574c-0.19403076 -0.32976532 -0.31341553 -0.72364044 -0.3581543 -1.1816406c-0.044799805 -0.4580078 0.119384766 -0.74196625 0.49249268 -0.85188293c2.8354492 -1.0076065 5.6261597 -2.546486 8.372131 -4.616642c2.7608643 -2.088482 5.059143 -4.845646 6.8947144 -8.271488c1.8356323 -3.4441605 2.753418 -7.7035675 2.753418 -12.7782135c0 -9.105045 -2.9623413 -15.883453 -8.887024 -20.335218c-5.909729 -4.451763 -14.274475 -6.6776457 -25.094116 -6.6776457z" fill-rule="evenodd"/></g></svg>